<svg width="47.492" height="47.492" xmlns="http://www.w3.org/2000/svg">

 <g>
  <title>background</title>
  <rect fill="none" id="canvas_background" height="402" width="582" y="-1" x="-1"/>
 </g>
 <g>
  <title>Layer 1</title>
  <g id="svg_1">
   <path id="svg_2" fill="#ffffff" d="m19.099,31.127l-9.262,0l-2.303,8.611l-7.534,0l9.837,-31.992l9.597,0l8.316,26.404l5.434,-17.421l6.98,0l7.328,23.017l-5.757,0l-1.815,-6.263l-6.736,0l-1.675,6.263l-9.915,-0.008l-2.495,-8.611zm-8.206,-5.203l7.15,0l-2.015,-6.798l-0.852,-3.09l-0.78,-3.089l-0.096,0l-0.726,3.117l-0.762,3.142l-1.919,6.718zm23.059,3.776l5.2,0l-1.466,-4.944l-0.619,-2.247l-0.567,-2.246l-0.07,0l-0.528,2.267l-0.554,2.285l-1.396,4.885zm-3.512,-21.954l12,0l-6,6l-6,-6z"/>
  </g>
  <g id="svg_3"/>
  <g id="svg_4"/>
  <g id="svg_5"/>
  <g id="svg_6"/>
  <g id="svg_7"/>
  <g id="svg_8"/>
  <g id="svg_9"/>
  <g id="svg_10"/>
  <g id="svg_11"/>
  <g id="svg_12"/>
  <g id="svg_13"/>
  <g id="svg_14"/>
  <g id="svg_15"/>
  <g id="svg_16"/>
  <g id="svg_17"/>
 </g>
</svg>