<svg width="284.336" height="284.336" xmlns="http://www.w3.org/2000/svg">

 <g>
  <title>background</title>
  <rect fill="none" id="canvas_background" height="402" width="582" y="-1" x="-1"/>
 </g>
 <g>
  <title>Layer 1</title>
  <ellipse stroke="null" ry="116.5" rx="120.500001" id="svg_17" cy="134.121125" cx="139.168031" stroke-opacity="null" stroke-width="null" fill="#000000"/>
  <path fill="#ffffff" id="svg_1" d="m244.884,43.885c-0.847,-0.89 -1.705,-1.772 -2.577,-2.645c-0.096,-0.096 -0.202,-0.179 -0.301,-0.272c-26.771,-26.422 -62.184,-40.968 -99.837,-40.968c-37.975,0 -73.676,14.788 -100.527,41.641c-55.43,55.431 -55.43,145.624 0,201.055c26.852,26.853 62.553,41.641 100.527,41.641s73.676,-14.788 100.527,-41.641c54.69,-54.69 55.416,-143.217 2.188,-198.811zm-182.03,18.969c21.186,-21.186 49.354,-32.854 79.315,-32.854c24.702,0 48.18,7.938 67.536,22.595l-157.116,157.079c-33.139,-43.916 -29.723,-106.831 10.265,-146.82z"/>
  <g id="svg_2"/>
  <g id="svg_3"/>
  <g id="svg_4"/>
  <g id="svg_5"/>
  <g id="svg_6"/>
  <g id="svg_7"/>
  <g id="svg_8"/>
  <g id="svg_9"/>
  <g id="svg_10"/>
  <g id="svg_11"/>
  <g id="svg_12"/>
  <g id="svg_13"/>
  <g id="svg_14"/>
  <g id="svg_15"/>
  <g id="svg_16"/>
 </g>
</svg>